{"__version": 1, "token_id": 484084, "symbol": "OBJKT", "name": "30 Seconds of New York Skyline", "description": "Input #0, mov,mp4,m4a,3gp,3g2,mj2, from 'Nightlights.mp4':\n  Metadata:\n    major_brand     : isom\n    minor_version   : 512\n    compatible_brands: isomiso2avc1mp41\n    comment         : The light is coming from inside the house\n    encoder         : Lavf58.45.100\n  Duration: 00:00:30.00, start: 0.000000, bitrate: 14003 kb/s\n    Stream #0:0(und): Video: h264 (High) (avc1 / 0x31637661), yuv420p, 2560x1920, 13676 kb/s, 30 fps, 30 tbr, 16k tbn, 60 tbc (default)\n    Metadata:\n      handler_name    : VideoHandler\n    Stream #0:1(eng): Audio: aac (LC) (mp4a / 0x6134706D), 48000 Hz, stereo, fltp, 317 kb/s (default)\n    Metadata:\n      handler_name    : #Mainconcept MP4 Sound Media Handler", "artifact_uri": "ipfs://QmPs6FcavrURapGHkdpKrVApckxaYbVpcQVvVsvoN97Zer", "display_uri": "ipfs://QmdV4pcEaQBDgHUNwTxLKed593ncecfzq899S1njzD2Bfu", "thumbnail_uri": "ipfs://QmNrhZHUaEqxhyLfqoq1mtHSipkWHeT31LNHb1QEbDHgnc", "formats": [{"uri": "ipfs://QmPs6FcavrURapGHkdpKrVApckxaYbVpcQVvVsvoN97Zer", "mimeType": "video/mp4"}], "creators": ["tz1VZrkBPdGjdS1mBHnr6Msu61GszRMGXFYf"], "tags": ["videosynthesis", "silhouette", "cityscape", "videoart", "skyline", "cosmicart"], "extra": {}}